<svg width="31" height="33" viewBox="0 0 31 33" fill="none" xmlns="http://www.w3.org/2000/svg">
<g id="Group 39796">
<path id="Rectangle 4506" d="M16.9712 8.5044C16.9712 5.531 20.5872 4.06553 22.6573 6.20001L28.9381 12.6762C30.1943 13.9715 30.8968 15.705 30.8968 17.5094V24.1166C30.8968 27.09 27.2807 28.5555 25.2107 26.421L18.9299 19.9447C17.6737 18.6495 16.9712 16.916 16.9712 15.1116V8.5044Z" fill="#9328FF"/>
<path id="Rectangle 4505" d="M8.34106 8.16746C8.34106 5.19405 11.9571 3.72859 14.0272 5.86307L20.0264 12.0491C21.4632 13.5305 22.2667 15.5131 22.2667 17.5768V23.7797C22.2667 26.7531 18.6506 28.2185 16.5806 26.084L10.2998 19.6078C9.04359 18.3125 8.34106 16.579 8.34106 14.7746V8.16746Z" fill="#0096FB"/>
<path id="Rectangle 4504" d="M0 8.50441C0 5.531 3.61605 4.06553 5.68611 6.20001L11.9669 12.6762C13.2231 13.9715 13.9256 15.705 13.9256 17.5094V24.1166C13.9256 27.09 10.3096 28.5555 8.23949 26.421L1.95873 19.9447C0.70253 18.6495 0 16.916 0 15.1116V8.50441Z" fill="#4A3AFF"/>
</g>
</svg>
