<svg width="30" height="31" viewBox="0 0 30 31" fill="none" xmlns="http://www.w3.org/2000/svg">
<path id="Vector" d="M10.0343 24.2314C10.0343 24.3555 9.89516 24.4547 9.71976 24.4547C9.52016 24.4733 9.38105 24.3741 9.38105 24.2314C9.38105 24.1073 9.52016 24.0081 9.69556 24.0081C9.87702 23.9895 10.0343 24.0887 10.0343 24.2314ZM8.15323 23.9522C8.11089 24.0763 8.23185 24.219 8.41331 24.2562C8.57056 24.3182 8.75202 24.2562 8.78831 24.1321C8.8246 24.0081 8.70968 23.8654 8.52823 23.8096C8.37097 23.7661 8.19556 23.8282 8.15323 23.9522ZM10.8266 23.8468C10.6512 23.8902 10.5302 24.0081 10.5484 24.1508C10.5665 24.2748 10.7238 24.3555 10.9052 24.312C11.0806 24.2686 11.2016 24.1508 11.1835 24.0267C11.1653 23.9088 11.002 23.8282 10.8266 23.8468ZM14.8065 0.0754395C6.41734 0.0754395 0 6.6076 0 15.2117C0 22.0912 4.22177 27.9782 10.252 30.0502C11.0262 30.1928 11.2984 29.7028 11.2984 29.2996C11.2984 28.9149 11.2802 26.7934 11.2802 25.4907C11.2802 25.4907 7.04637 26.4212 6.15726 23.6421C6.15726 23.6421 5.46774 21.8369 4.47581 21.3716C4.47581 21.3716 3.09073 20.3977 4.57258 20.4163C4.57258 20.4163 6.07863 20.5404 6.90726 22.0168C8.23185 24.4113 10.4516 23.7227 11.3165 23.3133C11.4556 22.3208 11.8488 21.6322 12.2843 21.2228C8.90323 20.8381 5.49194 20.3357 5.49194 14.368C5.49194 12.6621 5.95161 11.806 6.91935 10.7142C6.7621 10.311 6.24798 8.64851 7.07661 6.50214C8.34073 6.09892 11.25 8.17705 11.25 8.17705C12.4597 7.82966 13.7601 7.64976 15.0484 7.64976C16.3367 7.64976 17.6371 7.82966 18.8468 8.17705C18.8468 8.17705 21.756 6.09272 23.0202 6.50214C23.8488 8.65471 23.3347 10.311 23.1774 10.7142C24.1452 11.8122 24.7379 12.6683 24.7379 14.368C24.7379 20.3543 21.1754 20.8319 17.7944 21.2228C18.3508 21.7128 18.8226 22.6433 18.8226 24.1011C18.8226 26.1917 18.8044 28.7785 18.8044 29.2871C18.8044 29.6904 19.0827 30.1804 19.8508 30.0378C25.8992 27.9782 30 22.0912 30 15.2117C30 6.6076 23.1956 0.0754395 14.8065 0.0754395ZM5.87903 21.4709C5.8004 21.5329 5.81855 21.6756 5.92137 21.7935C6.01814 21.8927 6.15726 21.9361 6.23589 21.8555C6.31452 21.7935 6.29637 21.6508 6.19355 21.5329C6.09677 21.4337 5.95766 21.3902 5.87903 21.4709ZM5.22581 20.9684C5.18347 21.0491 5.24395 21.1483 5.36492 21.2104C5.46169 21.2724 5.58266 21.2538 5.625 21.1669C5.66734 21.0863 5.60685 20.987 5.48589 20.925C5.36492 20.8878 5.26815 20.9064 5.22581 20.9684ZM7.18548 23.1768C7.08871 23.2575 7.125 23.4436 7.26411 23.5614C7.40323 23.7041 7.57863 23.7227 7.65726 23.6235C7.73589 23.5428 7.6996 23.3567 7.57863 23.2389C7.44556 23.0962 7.26411 23.0776 7.18548 23.1768ZM6.49597 22.2649C6.39919 22.327 6.39919 22.4882 6.49597 22.6309C6.59274 22.7736 6.75605 22.8356 6.83468 22.7736C6.93145 22.693 6.93145 22.5317 6.83468 22.389C6.75 22.2463 6.59274 22.1843 6.49597 22.2649Z" fill="#8D8D99"/>
</svg>
