<svg width="20" height="20" viewBox="0 0 20 21" fill="none" xmlns="http://www.w3.org/2000/svg">
<g id="vector">
<path d="M6.33703 8.30402V8.14826C6.33703 7.75342 6.65492 7.42596 7.06462 7.39875L10.0489 7.20055L14.1759 13.2462V7.94011L13.1136 7.79924V7.72526C13.1136 7.32578 13.4387 6.99616 13.8537 6.97501L16.569 6.83664V7.22536C16.569 7.40785 16.4326 7.56393 16.2457 7.59539L15.5922 7.70533V16.2983L14.7721 16.5789C14.087 16.8133 13.3243 16.5624 12.9321 15.9736L8.92556 9.95923V15.6996L10.1588 15.9344L10.1416 16.0482C10.0878 16.4046 9.77843 16.6742 9.4042 16.6908L6.33703 16.8266C6.29649 16.4433 6.58527 16.1004 6.98364 16.0587L7.38709 16.0166V8.36272L6.33703 8.30402Z" fill="black"/>
<path fill-rule="evenodd" clip-rule="evenodd" d="M13.6038 0.166372L1.30747 1.00151C0.570933 1.05154 0 1.6406 0 2.35049V14.2479C0 14.9149 0.230811 15.563 0.656071 16.09L3.30733 19.3757C3.73599 19.9069 4.41058 20.1994 5.10849 20.1567L18.756 19.3209C19.4555 19.2781 20 18.7202 20 18.0463V4.52009C20 4.10318 19.7884 3.71252 19.433 3.47354L15.1128 0.567822C14.6725 0.271694 14.1398 0.129968 13.6038 0.166372ZM1.91722 2.53607C1.7462 2.41012 1.82759 2.14771 2.04244 2.13238L13.6865 1.30155C14.0575 1.27507 14.4261 1.3767 14.7262 1.58817L17.0624 3.23476C17.1511 3.29728 17.1095 3.43223 16.9997 3.43817L4.66873 4.10531C4.29555 4.1255 3.9272 4.01644 3.63049 3.79791L1.91722 2.53607ZM4.09035 6.19675C4.09035 5.79824 4.41399 5.46906 4.82783 5.44664L17.8652 4.74032C18.2685 4.71847 18.6081 5.02703 18.6081 5.41542V17.1277C18.6081 17.5255 18.2856 17.8543 17.8725 17.8777L4.91772 18.611C4.46886 18.6364 4.09035 18.2933 4.09035 17.861V6.19675Z" fill="black"/>
</g>
</svg>
