<svg width="50" height="50" viewBox="0 0 50 50" fill="none" xmlns="http://www.w3.org/2000/svg">
<g id="ChatTeardropDots">
<path id="Vector" d="M24.2189 42.1875H40.6837C40.8819 42.1901 41.0787 42.153 41.2623 42.0784C41.446 42.0037 41.6128 41.893 41.753 41.7529C41.8932 41.6127 42.0038 41.4459 42.0785 41.2622C42.1531 41.0786 42.1902 40.8818 42.1876 40.6836V24.2187C42.1876 19.4531 40.2945 14.8827 36.9247 11.5129C33.5549 8.14313 28.9845 6.25 24.2189 6.25V6.25C21.8592 6.25 19.5226 6.71478 17.3425 7.61779C15.1625 8.5208 13.1816 9.84437 11.513 11.5129C9.84449 13.1815 8.52092 15.1623 7.61791 17.3424C6.71489 19.5225 6.25012 21.8591 6.25012 24.2187V24.2187C6.25012 26.5784 6.71489 28.915 7.61791 31.0951C8.52092 33.2752 9.84449 35.256 11.513 36.9246C13.1816 38.5931 15.1625 39.9167 17.3425 40.8197C19.5226 41.7227 21.8592 42.1875 24.2189 42.1875V42.1875Z" fill="#0096FB"/>
<path id="Vector_2" d="M24.2188 27.3438C22.9243 27.3438 21.875 26.2944 21.875 25C21.875 23.7056 22.9243 22.6562 24.2188 22.6562C25.5132 22.6562 26.5625 23.7056 26.5625 25C26.5625 26.2944 25.5132 27.3438 24.2188 27.3438Z" fill="black"/>
<path id="Vector_3" d="M33.5938 27.3438C32.2993 27.3438 31.25 26.2944 31.25 25C31.25 23.7056 32.2993 22.6562 33.5938 22.6562C34.8882 22.6562 35.9375 23.7056 35.9375 25C35.9375 26.2944 34.8882 27.3438 33.5938 27.3438Z" fill="black"/>
<path id="Vector_4" d="M14.8438 27.3438C13.5493 27.3438 12.5 26.2944 12.5 25C12.5 23.7056 13.5493 22.6562 14.8438 22.6562C16.1382 22.6562 17.1875 23.7056 17.1875 25C17.1875 26.2944 16.1382 27.3438 14.8438 27.3438Z" fill="black"/>
</g>
</svg>
