<svg width="25" height="25" viewBox="0 0 25 25" fill="none" xmlns="http://www.w3.org/2000/svg">
<path d="M12.5 24H1.96246C1.8356 24.0017 1.70968 23.9779 1.59215 23.9302C1.47461 23.8824 1.36784 23.8115 1.27813 23.7218C1.18841 23.6321 1.11758 23.5253 1.0698 23.4078C1.02203 23.2903 0.998281 23.1644 0.999961 23.0375V12.5C0.999961 9.45001 2.21156 6.52494 4.36823 4.36827C6.5249 2.2116 9.44997 1 12.5 1V1C14.0102 1 15.5056 1.29746 16.9008 1.87539C18.2961 2.45331 19.5638 3.3004 20.6317 4.36827C21.6996 5.43615 22.5466 6.7039 23.1246 8.09914C23.7025 9.49438 24 10.9898 24 12.5V12.5C24 14.0102 23.7025 15.5056 23.1246 16.9009C22.5466 18.2961 21.6996 19.5639 20.6317 20.6317C19.5638 21.6996 18.2961 22.5467 16.9008 23.1246C15.5056 23.7025 14.0102 24 12.5 24V24Z" stroke="black" stroke-width="2" stroke-linecap="round" stroke-linejoin="round"/>
<path d="M12.5 14.5C13.3284 14.5 14 13.8284 14 13C14 12.1716 13.3284 11.5 12.5 11.5C11.6716 11.5 11 12.1716 11 13C11 13.8284 11.6716 14.5 12.5 14.5Z" fill="black"/>
<path d="M6.5 14.5C7.32843 14.5 8 13.8284 8 13C8 12.1716 7.32843 11.5 6.5 11.5C5.67157 11.5 5 12.1716 5 13C5 13.8284 5.67157 14.5 6.5 14.5Z" fill="black"/>
<path d="M18.5 14.5C19.3284 14.5 20 13.8284 20 13C20 12.1716 19.3284 11.5 18.5 11.5C17.6716 11.5 17 12.1716 17 13C17 13.8284 17.6716 14.5 18.5 14.5Z" fill="black"/>
</svg>
